<?xml version="1.0" standalone="no"?><!DOCTYPE svg PUBLIC "-//W3C//DTD SVG 1.1//EN" "http://www.w3.org/Graphics/SVG/1.1/DTD/svg11.dtd"><svg t="1650363687855" class="icon" viewBox="0 0 1024 1024" version="1.1" xmlns="http://www.w3.org/2000/svg" p-id="6822" xmlns:xlink="http://www.w3.org/1999/xlink" width="200" height="200"><defs><style type="text/css">@font-face { font-family: feedback-iconfont; src: url("//at.alicdn.com/t/font_1031158_u69w8yhxdu.woff2?t=1630033759944") format("woff2"), url("//at.alicdn.com/t/font_1031158_u69w8yhxdu.woff?t=1630033759944") format("woff"), url("//at.alicdn.com/t/font_1031158_u69w8yhxdu.ttf?t=1630033759944") format("truetype"); }
</style></defs><path d="M100.7 672.3c21.3 56.8 72.9 127.1 134.4 183.4 70.3 64.2 141.1 99.6 199.4 99.6h475.1c6.8 0 13.5-2.8 18.3-7.7 4.9-4.9 7.5-11.5 7.5-18.4V768.1c0.1-10.6-6.2-20.1-15.9-24.2l-8.2-3.4c-25.4-10.5-78.3-32.3-132.4-53.6l-8.2-3.2 5.9-6.5c61.3-67.5 95.2-154.9 95.4-246.1 1.7-129.4-66.7-250.3-178.4-315.5-111.8-65.2-250.6-65.2-362.4 0C219.4 180.7 151 301.6 152.7 431c0 15.9 1 31.9 3 47.6v0.1c1 9.3 6.9 17.4 15.6 21.1 8.6 3.7 18.6 2.3 26-3.4 7.4-5.8 11-15.1 9.5-24.4v-0.2c-1.7-13.4-2.6-27.1-2.6-40.7 1.1-140.5 96.9-262.4 233.1-296.6 136.2-34.2 278.3 28 345.5 151.3 67.2 123.1 42.7 276-59.4 372.1 0 0.1-0.1 0.2-0.1 0.2-0.4 0.7-1 1.8-2.2 2.8l-2.8 2.5-3.5-1.4c-29.9-12.1-60.9-22.4-92.1-30.5-22.3-3-44.4 7.3-56.4 26.4l-0.2 0.3c-10.5 14.7-13.3 33.6-7.4 50.6 10.9 19.9 23.9 38.9 38.6 56.2l8.4 10h-13.1c-66.5-0.1-131.7-12.2-193.8-36.2-32.2-12.4-70.3-53.5-104-89.7l-0.8-0.9c-46.7-50.2-90.8-97.6-137.1-97.6-17.1 0.1-33.4 6.6-45.9 18.3l-0.1 0.1c-16.6 15-32 45.1-10.2 103.3z m44.1-63.8c3.1-3.5 7.5-5.5 12.1-5.6h0.1c22.3 0 58.4 36.8 99.8 81.3 39.4 42.4 80.1 86.3 123.6 103.5 68.1 26.2 139.7 39.5 212.8 39.5h0.3c22.5 0.3 45.1-1.2 67.3-4.4 9.1-1.6 16.6-8 19.8-16.7 3.2-8.8 1.5-18.8-4.5-26-25-29.9-58-71.8-67.3-86.4l-2.2-3.5 1.5-2-0.7-6.3 7.9 1.3c24.9 4 172.1 62.5 264.9 100.9l3.7 1.5v111.3h-6v6.1H441.6l-0.8 26.3-12.1-0.2v-26.3c-22.6-1.3-48.4-10.1-76.7-26-27.2-15.3-56.5-37.2-84.8-63.6-54.5-50.5-100.9-113.2-118.3-159.6-9.8-26.1-8.4-40.4-4.1-45.1z" p-id="6823"></path><path d="M603 356.1l-3-0.7c-7.3-1.8-12.3 0.1-15.3 2-4.9 3.1-8.2 8.6-9.7 16.5l-0.6 3.2 1.8 2.8c36.3 54.4 63.8 101.3 81.9 139.5l0.8 1.7 1.4 1.2c2.3 1.8 8.3 6.7 15.2 6.7 1.6 0 3.3-0.3 5-0.9 5.8-2.2 9.4-7.8 10.9-16.8l0.4-2.5-1.1-2.3c-20.5-43-49.5-92.7-86.1-147.6l-1.6-2.8z" p-id="6824"></path><path d="M687.7 579.3l-1.9-1.1H562.5c1.8-1.4 3.6-3.3 5.3-5.5l1.6-2.1V367.9c10.9-23.8 20.4-46.3 28.1-67.1H674l2.1-1.6c6.2-4.6 9.3-9.9 9.3-15.6s-3.1-10.9-9.3-15.6l-2.1-1.6H448.8l-2.1 1.6c-6.2 4.6-9.3 9.9-9.3 15.6s3.1 10.9 9.3 15.6l2.1 1.6h110.4c-28.3 75.5-73.5 142.7-134.6 200l-1.9 1.7-0.5 2.5c-0.9 4.4-0.9 8.3 0 11.5-1.9-2.9-3.7-5.9-5.6-9.1V403.2c1.1-11.8-1.4-21.2-7.5-28-6.6-7.3-17-11-31-11h-45.4l-2.1 1.6c-6.2 4.6-9.3 9.9-9.3 15.6 0 5.7 3.1 10.9 9.3 15.6l2.1 1.6H372c7 0 9.2 1.7 9.8 2.4 1.3 1.5 1 4.8 0.7 6.6l-0.1 0.7V504.4c1.8 19.6-14.8 45.1-49.3 75.8l-2 1.8-0.5 2.6c-1.6 7.8-0.3 13.9 3.7 17.9 4 4 10.1 5.3 17.9 3.7l2-0.4 1.5-1.3c19.4-15.9 35.3-33.5 47.4-52.5 29.9 40.2 68.6 60.5 115.4 60.5 2.1 0 4.3 0 6.4-0.1h160.9l1.9-1.1c7.6-4.6 11.5-10 11.5-16s-3.9-11.4-11.5-16z m-243.9-52.5l2.1-0.4 1.6-1.5c32.6-29.1 61.9-63 87.5-100.9v146.4l1.6 2.1c1.7 2.2 3.5 4.1 5.3 5.5h-23.7c-34.7 1.7-64.5-16-90.9-53.8 4 3.1 9.5 4 16.5 2.6z" p-id="6825"></path><path d="M386.2 342.3l1.7 3.5 3.8 0.8c2.5 0.5 4.9 0.8 7.1 0.8 4.9 0 8.8-1.3 11.9-3.8 2.7-2.2 5.9-6.4 5.9-14V328l-0.5-1.4c-10.4-26.9-23-51.1-37.6-72l-1.8-2.6-3.2-0.6c-7.6-1.5-13.7-0.4-18.2 3.3-4.4 3.6-6.7 9.3-6.7 16.8v2.3l1.2 1.9c10.1 16 22.3 38.4 36.4 66.6z" p-id="6826"></path></svg>