<?xml version="1.0" standalone="no"?><!DOCTYPE svg PUBLIC "-//W3C//DTD SVG 1.1//EN" "http://www.w3.org/Graphics/SVG/1.1/DTD/svg11.dtd"><svg t="1650378479591" class="icon" viewBox="0 0 1024 1024" version="1.1" xmlns="http://www.w3.org/2000/svg" p-id="5731" xmlns:xlink="http://www.w3.org/1999/xlink" width="200" height="200"><defs><style type="text/css">@font-face { font-family: feedback-iconfont; src: url("//at.alicdn.com/t/font_1031158_u69w8yhxdu.woff2?t=1630033759944") format("woff2"), url("//at.alicdn.com/t/font_1031158_u69w8yhxdu.woff?t=1630033759944") format("woff"), url("//at.alicdn.com/t/font_1031158_u69w8yhxdu.ttf?t=1630033759944") format("truetype"); }
</style></defs><path d="M191.627636 531.642182h640.768v34.909091H191.627636z" p-id="5732"></path><path d="M917.643636 306.106182c5.213091 0 10.542545 0.558545 15.825455 1.675636 27.229091 5.701818 49.617455 28.997818 54.458182 56.645818 6.656 37.957818-15.685818 66.513455-40.773818 77.986909l-20.38691 9.332364V796.439273a53.178182 53.178182 0 0 1-53.131636 53.131636H150.411636a53.178182 53.178182 0 0 1-53.131636-53.131636V451.723636l-20.410182-9.309091c-25.088-11.473455-47.429818-40.029091-40.773818-77.986909 4.840727-27.648 27.229091-50.944 54.458182-56.622545 5.282909-1.117091 10.612364-1.675636 15.825454-1.675636a71.540364 71.540364 0 0 1 71.424 69.306181l-0.046545 0.325819-0.023273 2.56-0.186182 35.141818h0.232728v209.175272a77.125818 77.125818 0 0 0 77.056 77.056H769.186909a77.125818 77.125818 0 0 0 77.056-77.056v-209.175272h0.302546l-0.232728-35.141818-0.069818-2.885819a71.517091 71.517091 0 0 1 71.400727-69.329454m0-34.909091a106.379636 106.379636 0 0 0-106.379636 106.379636c0 0.325818 0.093091 0.651636 0.093091 0.977455h-0.046546v244.084363c0 23.272727-18.874182 42.146909-42.146909 42.14691H254.859636c-23.272727 0-42.146909-18.874182-42.146909-42.14691V378.554182h-0.046545c0-0.325818 0.093091-0.651636 0.093091-0.977455a106.379636 106.379636 0 0 0-106.379637-106.379636 112.407273 112.407273 0 0 0-22.993454 2.397091C41.914182 282.274909 8.983273 316.648727 1.675636 358.376727a106.216727 106.216727 0 0 0 60.648728 115.758546V796.392727a88.040727 88.040727 0 0 0 88.040727 88.040728h723.246545a88.040727 88.040727 0 0 0 88.040728-88.040728V474.135273a106.216727 106.216727 0 0 0 60.648727-115.758546c-7.307636-41.728-40.238545-76.101818-81.710546-84.782545a113.082182 113.082182 0 0 0-22.946909-2.397091z" p-id="5733"></path><path d="M164.747636 312.738909l-32.139636-13.614545A411.322182 411.322182 0 0 1 512.023273 47.709091c165.841455 0 314.763636 98.676364 379.415272 251.415273l-32.139636 13.614545A376.436364 376.436364 0 0 0 512.023273 82.618182a376.506182 376.506182 0 0 0-347.275637 230.120727zM201.472 976.267636a17.454545 17.454545 0 0 1-17.454545-17.454545v-81.454546a17.454545 17.454545 0 0 1 34.90909 0v81.454546a17.454545 17.454545 0 0 1-17.454545 17.454545zM822.574545 976.267636a17.454545 17.454545 0 0 1-17.454545-17.454545v-81.454546a17.454545 17.454545 0 0 1 34.909091 0v81.454546a17.454545 17.454545 0 0 1-17.454546 17.454545z" p-id="5734"></path></svg>