<?xml version="1.0" standalone="no"?><!DOCTYPE svg PUBLIC "-//W3C//DTD SVG 1.1//EN" "http://www.w3.org/Graphics/SVG/1.1/DTD/svg11.dtd"><svg t="1651031200663" class="icon" viewBox="0 0 1024 1024" version="1.1" xmlns="http://www.w3.org/2000/svg" p-id="2615" xmlns:xlink="http://www.w3.org/1999/xlink" width="200" height="200"><defs><style type="text/css">@font-face { font-family: feedback-iconfont; src: url("//at.alicdn.com/t/font_1031158_u69w8yhxdu.woff2?t=1630033759944") format("woff2"), url("//at.alicdn.com/t/font_1031158_u69w8yhxdu.woff?t=1630033759944") format("woff"), url("//at.alicdn.com/t/font_1031158_u69w8yhxdu.ttf?t=1630033759944") format("truetype"); }
</style></defs><path d="M385.580247 271.802469v37.925926h-50.567901a31.604938 31.604938 0 0 0-31.541729 29.531654L303.407407 341.333333v417.185186a31.604938 31.604938 0 0 0 29.531655 31.541728L335.012346 790.123457h353.975308a31.604938 31.604938 0 0 0 31.541729-29.531655L720.592593 758.518519V341.333333a31.604938 31.604938 0 0 0-29.531655-31.541728L688.987654 309.728395h-50.567901v-37.925926h50.567901a69.530864 69.530864 0 0 1 69.480297 66.736988L758.518519 341.333333v417.185186a69.530864 69.530864 0 0 1-66.736988 69.480296L688.987654 828.049383H335.012346a69.530864 69.530864 0 0 1-69.480297-66.736988L265.481481 758.518519V341.333333a69.530864 69.530864 0 0 1 66.736988-69.480296L335.012346 271.802469h50.567901z" p-id="2616"></path><path d="M625.777778 455.111111a18.962963 18.962963 0 0 1 1.820444 37.837432L625.777778 493.037037H398.222222a18.962963 18.962963 0 0 1-1.820444-37.837432L398.222222 455.111111h227.555556zM625.777778 581.530864a18.962963 18.962963 0 0 1 1.820444 37.837432L625.777778 619.45679H398.222222a18.962963 18.962963 0 0 1-1.820444-37.837432L398.222222 581.530864h227.555556zM625.777778 707.950617a18.962963 18.962963 0 0 1 1.820444 37.837432L625.777778 745.876543H398.222222a18.962963 18.962963 0 0 1-1.820444-37.837432L398.222222 707.950617h227.555556zM448.790123 208.592593l-1.820444 0.088493A18.962963 18.962963 0 0 0 429.82716 227.555556v18.962963H398.222222a31.604938 31.604938 0 0 0-31.604938 31.604938v88.493827a31.604938 31.604938 0 0 0 31.604938 31.604938h227.555556a31.604938 31.604938 0 0 0 31.604938-31.604938v-88.493827l-0.06321-2.073284A31.604938 31.604938 0 0 0 625.777778 246.518519h-31.604938V227.555556a18.962963 18.962963 0 0 0-18.962963-18.962963H448.790123z m107.456791 37.925926V265.481481l0.088493 1.820445A18.962963 18.962963 0 0 0 575.209877 284.444444h44.246913v75.851852h-214.91358v-75.851852H448.790123l1.820445-0.088493A18.962963 18.962963 0 0 0 467.753086 265.481481v-18.962962h88.493828z" p-id="2617"></path></svg>