<?xml version="1.0" standalone="no"?><!DOCTYPE svg PUBLIC "-//W3C//DTD SVG 1.1//EN" "http://www.w3.org/Graphics/SVG/1.1/DTD/svg11.dtd"><svg t="1650363732905" class="icon" viewBox="0 0 1024 1024" version="1.1" xmlns="http://www.w3.org/2000/svg" p-id="8159" xmlns:xlink="http://www.w3.org/1999/xlink" width="200" height="200"><defs><style type="text/css">@font-face { font-family: feedback-iconfont; src: url("//at.alicdn.com/t/font_1031158_u69w8yhxdu.woff2?t=1630033759944") format("woff2"), url("//at.alicdn.com/t/font_1031158_u69w8yhxdu.woff?t=1630033759944") format("woff"), url("//at.alicdn.com/t/font_1031158_u69w8yhxdu.ttf?t=1630033759944") format("truetype"); }
</style></defs><path d="M303.786667 170.666667l68.266666 3.413333L375.466667 102.4H307.2l-3.413333 68.266667z m-20.48 546.133333l68.266666 3.413333 6.826667-136.533333-68.266667-3.413333-6.826666 136.533333z m10.24-273.066667l68.266666 3.413334 6.826667-136.533334-68.266667-3.413333-6.826666 136.533333zM273.066667 921.6h68.266666l3.413334-68.266667-68.266667-3.413333L273.066667 921.6z m-238.933334 0h68.266667L204.8 102.4H136.533333L34.133333 921.6zM887.466667 102.4h-68.266667l102.4 819.2h68.266667L887.466667 102.4z m-208.213334 750.933333l3.413334 68.266667h68.266666l-3.413333-68.266667h-68.266667z m58.026667-273.066666l-68.266667 3.413333 6.826667 136.533333 68.266667-3.413333-6.826667-136.533333z m-10.24-273.066667l-68.266667 3.413333 6.826667 136.533334 68.266667-3.413334-6.826667-136.533333zM716.8 102.4h-68.266667l3.413334 71.68 68.266666-3.413333-3.413333-68.266667z m-238.933333 819.2h68.266666V102.4h-68.266666v819.2z" p-id="8160"></path></svg>