<?xml version="1.0" standalone="no"?><!DOCTYPE svg PUBLIC "-//W3C//DTD SVG 1.1//EN" "http://www.w3.org/Graphics/SVG/1.1/DTD/svg11.dtd"><svg t="1650360207985" class="icon" viewBox="0 0 1024 1024" version="1.1" xmlns="http://www.w3.org/2000/svg" p-id="8128" xmlns:xlink="http://www.w3.org/1999/xlink" width="200" height="200"><defs><style type="text/css">@font-face { font-family: feedback-iconfont; src: url("//at.alicdn.com/t/font_1031158_u69w8yhxdu.woff2?t=1630033759944") format("woff2"), url("//at.alicdn.com/t/font_1031158_u69w8yhxdu.woff?t=1630033759944") format("woff"), url("//at.alicdn.com/t/font_1031158_u69w8yhxdu.ttf?t=1630033759944") format("truetype"); }
</style></defs><path d="M606.208 515.584l1.024-1.024c11.776-11.776 24.064-23.552 35.328-35.328 5.632-5.12 7.68-12.8 5.632-20.48-2.048-8.704-9.216-15.36-16.896-16.896-9.216-3.072-17.92 0-28.672 11.264-11.776 11.264-23.04 23.04-34.816 34.816l-2.048 2.048-32.256 32.256-2.56 2.56L457.728 450.56c-6.656-7.168-18.432-13.824-28.16-9.216h-0.512c-7.68 2.56-12.8 9.728-15.36 18.432-2.048 8.192 0 15.36 5.632 20.48 14.848 15.36 30.208 30.72 43.52 44.032 9.216 9.216 20.48 19.968 30.72 30.72l2.56 2.56-12.8 12.8H481.28c-6.656 0.512-13.824 0-20.48 0-11.776-0.512-23.04-1.024-34.304 2.048-9.728 3.584-13.312 13.824-13.312 21.504 0 8.192 3.584 17.92 14.336 22.016 14.336 3.584 30.208 3.072 46.592 2.56 9.216-0.512 18.432-0.512 27.648 0h3.584v44.032h-31.744c-12.288 0-26.624-0.512-39.424 0.512-11.776 1.024-21.504 12.8-20.48 24.064 0 5.632 2.56 11.776 7.168 16.384 5.12 4.608 11.776 7.168 17.408 6.656 11.776 0.512 22.528 0 35.328 0h32.256v31.744c0 12.8 0 25.6 0.512 38.4 0.512 11.264 10.24 21.504 21.504 22.528h2.048c5.632 0 10.24-2.048 14.848-5.632 5.632-4.608 8.704-10.752 8.704-16.896 0.512-12.8 0.512-25.6 0.512-38.4v-31.744h67.072c7.168 0.512 13.824-2.56 18.944-8.192s6.656-11.776 5.632-17.92c-1.024-12.288-12.8-22.016-24.576-20.992H552.96V619.52h3.584c9.216-0.512 18.432 0 27.648 0 14.336 0.512 29.184 0.512 44.032-1.536 10.752-2.048 15.872-12.288 16.896-20.48 1.024-8.192-1.536-17.92-11.264-23.04-10.752-4.608-22.528-4.096-35.328-3.072-7.168 0.512-14.336 1.024-20.992 0h-2.048l-10.752-13.824 2.048-2.048c13.312-13.824 26.112-27.648 39.424-39.936z" fill="#2C2C2C" p-id="8129"></path><path d="M865.792 296.96h-63.488l11.264-32.768c13.824-41.984-9.216-87.552-50.688-101.888L448.512 58.368c-20.48-6.656-42.496-5.12-61.44 4.608-19.456 9.216-33.28 26.112-39.936 46.592-0.512 2.048-4.608 15.36-5.632 20.48l-2.048-0.512c-20.48-5.12-42.496-2.048-60.928 9.216-17.92 10.752-31.744 29.184-36.352 49.664L215.552 296.96h-47.616c-40.448 0-73.216 32.768-73.216 73.216v414.208c0 77.824 63.488 141.312 141.312 141.312h629.76c34.304 0 61.952-27.648 61.952-61.952V358.912c0.512-34.304-27.648-61.952-61.952-61.952zM393.216 138.24l4.096-12.288c4.608-13.824 19.968-22.016 34.304-16.896l314.368 103.936c6.656 2.048 12.8 7.168 15.872 13.312 3.072 6.144 3.584 13.824 1.536 20.48l-16.896 50.176H721.92c2.56-18.432-1.536-36.864-10.752-52.736-10.752-17.92-28.672-31.744-49.664-36.352L391.68 141.824c0.512-1.024 1.024-2.048 1.536-3.584zM294.4 202.24l0.512-1.024c2.048-7.168 6.144-12.8 12.8-16.896 6.144-3.584 13.312-5.12 20.48-3.072l321.536 78.848c7.168 2.048 12.8 6.144 16.896 12.8 3.584 5.632 5.12 13.312 3.072 20.48-0.512 1.024-0.512 2.048-1.024 3.584H271.36l23.04-94.72z m569.856 659.456H236.032c-42.496 0-77.312-34.816-77.312-77.312V370.176c0-5.12 4.096-8.704 8.704-8.704h696.32v500.224z" fill="#2C2C2C" p-id="8130"></path></svg>