<?xml version="1.0" standalone="no"?><!DOCTYPE svg PUBLIC "-//W3C//DTD SVG 1.1//EN" "http://www.w3.org/Graphics/SVG/1.1/DTD/svg11.dtd"><svg t="1650423148883" class="icon" viewBox="0 0 1024 1024" version="1.1" xmlns="http://www.w3.org/2000/svg" p-id="48398" xmlns:xlink="http://www.w3.org/1999/xlink" width="200" height="200"><defs><style type="text/css">@font-face { font-family: feedback-iconfont; src: url("//at.alicdn.com/t/font_1031158_u69w8yhxdu.woff2?t=1630033759944") format("woff2"), url("//at.alicdn.com/t/font_1031158_u69w8yhxdu.woff?t=1630033759944") format("woff"), url("//at.alicdn.com/t/font_1031158_u69w8yhxdu.ttf?t=1630033759944") format("truetype"); }
</style></defs><path d="M458.06 166.7l-237.6 237.6a28.6809375 28.6809375 0 0 0 0 40.68c11.22 11.22 29.4 11.22 40.62 0l222.54-222.54 222.54 222.54c11.22 11.22 29.4 11.22 40.62 0a28.6809375 28.6809375 0 0 0 0-40.68l-237.6-237.6c-16.62-16.56-29.04-18.42-51.12 0z m50.16 753.72l236.7-237.54c11.22-11.22 11.22-29.4 0-40.68-11.22-11.22-29.34-11.22-40.56 0l-221.7 222.54L260.9 642.2c-11.22-11.22-29.34-11.22-40.56 0-11.22 11.28-11.22 29.46 0 40.68l236.7 237.54c11.82 11.58 35.4 15.78 51.18 0z" p-id="48399"></path></svg>