<?xml version="1.0" standalone="no"?><!DOCTYPE svg PUBLIC "-//W3C//DTD SVG 1.1//EN" "http://www.w3.org/Graphics/SVG/1.1/DTD/svg11.dtd"><svg t="1650360263204" class="icon" viewBox="0 0 1024 1024" version="1.1" xmlns="http://www.w3.org/2000/svg" p-id="9093" xmlns:xlink="http://www.w3.org/1999/xlink" width="200" height="200"><defs><style type="text/css">@font-face { font-family: feedback-iconfont; src: url("//at.alicdn.com/t/font_1031158_u69w8yhxdu.woff2?t=1630033759944") format("woff2"), url("//at.alicdn.com/t/font_1031158_u69w8yhxdu.woff?t=1630033759944") format("woff"), url("//at.alicdn.com/t/font_1031158_u69w8yhxdu.ttf?t=1630033759944") format("truetype"); }
</style></defs><path d="M1018.666667 443.733333h-0.042667v0.234667h-68.458667V443.733333h-0.490666C916.693333 231.424 733.248 68.266667 511.978667 68.266667S107.264 231.424 74.282667 443.733333H5.333333C38.762667 193.322667 252.565333 0 511.978667 0c186.432 0 348.864 100.117333 438.186666 249.216V170.901333h68.458667v272.64a0.64 0.64 0 0 1 0.042667 0.192z m-612.416-136.298666l87.573333 145.877333c4.864 8.128 10.346667 18.474667 16.512 30.997333h1.344c4.394667-10.069333 10.133333-20.821333 17.152-32.277333l87.893333-144.597333h69.12l-126.954666 187.221333h100.48v41.301333h-117.952v57.450667h117.952v41.6h-117.952v82.602667h-64.469334v-82.602667h-121.6v-41.6h121.6v-57.450667h-121.6v-41.301333h102.464l-125.248-187.221333h73.685334zM74.282667 580.266667c32.981333 212.309333 216.426667 375.466667 437.696 375.466666s404.714667-163.157333 437.696-375.466666h68.949333C985.194667 830.656 771.392 1024 511.978667 1024c-186.432 0-348.885333-100.138667-438.186667-249.258667v79.381334H5.333333v-273.066667h0.149334L5.333333 580.266667h68.949334z" p-id="9094"></path></svg>