<?xml version="1.0" standalone="no"?><!DOCTYPE svg PUBLIC "-//W3C//DTD SVG 1.1//EN" "http://www.w3.org/Graphics/SVG/1.1/DTD/svg11.dtd"><svg t="1650363693005" class="icon" viewBox="0 0 1024 1024" version="1.1" xmlns="http://www.w3.org/2000/svg" p-id="6972" xmlns:xlink="http://www.w3.org/1999/xlink" width="200" height="200"><defs><style type="text/css">@font-face { font-family: feedback-iconfont; src: url("//at.alicdn.com/t/font_1031158_u69w8yhxdu.woff2?t=1630033759944") format("woff2"), url("//at.alicdn.com/t/font_1031158_u69w8yhxdu.woff?t=1630033759944") format("woff"), url("//at.alicdn.com/t/font_1031158_u69w8yhxdu.ttf?t=1630033759944") format("truetype"); }
</style></defs><path d="M285.5 851.1c-20.5 0-44.7-11-61.8-28-17.6-17.6-27.3-40.1-27.3-63.3s9.7-45.8 27.3-63.3l212.6-209.6c-3.7-11.3-6.4-22.8-8.9-38-6.7-55.2 10.3-109.8 46.4-150.6 36.4-41.1 88.6-64.7 143.2-64.7 17.1 0 38.5 0 57.9 7.8 11.3 5.6 18.5 15.5 20.3 26.6 1.5 9-1.1 17.5-7 23.4L593.5 386l61 61 97-97 3.1-1.5c11.5-5.8 20.8-4.7 26.6-2.7 7.4 2.5 13.6 7.9 17.2 15.3l0.7 1.6c7 17.5 10.5 37.7 13.8 64.6l0.2 2.6c0 53.5-21.9 103-61.7 139.4-40.7 37.1-95.9 55.6-152 50.4l-2.2-0.3c-12.1-2.4-24.5-4.9-37.2-8.9L350.5 823c-17.9 17.9-41.6 28.1-65 28.1zM617 275.6c-42.6 0-83.3 18.4-111.8 50.5-28.6 32.3-41.5 73.8-36.3 116.8 2.9 17.4 5.7 28.1 11.2 41.7l5.2 13-232 228.7c-9.7 9.7-14.9 21.3-14.9 33.5s5.2 23.8 15 33.6c9 9 22.8 15.7 32.1 15.7 5.8 0 21-1.5 35.2-15.7l228.7-231.9 13 5.2c13.5 5.4 27.4 8.2 42.1 11.2 43.6 3.7 87.1-10.8 118.8-39.7 30.7-28 47.7-66 48-107.1-1.7-13.9-3.5-25.6-5.8-35.5L681.9 479c-14.6 14.6-40.2 14.6-54.7 0l-65.7-65.7c-14.6-14.6-14.6-40.1 0-54.7l82.1-82.1c-8.4-0.9-17.8-0.9-26.6-0.9z" p-id="6973"></path></svg>